<svg width="27" height="37" viewBox="0 0 27 37" fill="none" xmlns="http://www.w3.org/2000/svg">
<path d="M13.7849 0.900537C13.2378 0.660676 12.699 0.828476 12.3523 1.18148C12.0156 1.52439 11.8472 2.04775 11.9653 2.57542C12.1517 3.40832 12.2501 4.27485 12.2501 5.16492C12.2501 7.19707 11.7379 8.62036 10.8566 9.80025C9.9608 10.9997 8.664 11.9761 7.02666 13.0779C7.00092 13.0952 6.97695 13.115 6.9551 13.137L6.75679 13.3369C3.24377 15.6065 0.916748 19.5582 0.916748 24.0538C0.916748 31.0954 6.62512 36.8038 13.6667 36.8038C20.7084 36.8038 26.4167 31.0954 26.4167 24.0538C26.4167 21.9863 25.9243 20.0325 25.0499 18.3045C24.9787 18.1639 24.8422 18.0681 24.6858 18.049C24.5294 18.0299 24.3738 18.09 24.2709 18.2093C24.1377 18.3637 24.0073 18.5161 23.8788 18.6663C22.2198 20.6046 20.881 22.1689 18.1362 22.8676C18.0194 22.8974 17.9469 22.8753 17.8955 22.8431C17.8349 22.8053 17.7687 22.7298 17.7233 22.6091C17.6286 22.3576 17.6693 22.037 17.8631 21.8268C19.3311 20.2352 20.374 18.0747 20.7466 15.0013C21.4447 9.24412 18.8281 3.11166 13.7849 0.900537Z" fill="#F7F8F9"/>
</svg>
